<?xml version="1.0" encoding="UTF-8"?>
<svg width="512px" height="512px" viewBox="0 0 512 512" version="1.1" xmlns="http://www.w3.org/2000/svg" xmlns:xlink="http://www.w3.org/1999/xlink">
    <!-- Generator: Sketch 41.2 (35397) - http://www.bohemiancoding.com/sketch -->
    <title>Artboard</title>
    <desc>Created with Sketch.</desc>
    <defs></defs>
    <g id="Page-1" stroke="none" stroke-width="1" fill="none" fill-rule="evenodd">
        <g id="Artboard">
            <polygon id="W" fill="#000000" points="70 45 129.560377 45 172.794559 411.698864 224.191838 169.048295 287.984931 169.048295 339.986885 412.303977 383.221066 45 442.781443 45 375.360306 496.71733 317.613951 496.71733 256.239553 228.349432 195.167492 496.71733 137.421137 496.71733"></polygon>
            <path d="M111,277.896015 C111,277.896015 124.106109,246.086131 195.741486,277.896015 C267.376863,309.705898 280.760369,267.173779 335.334146,250.710897 C389.907923,234.248015 404.604651,277.896015 404.604651,277.896015 L371.458303,490.896098 L140.399073,490.896098 L111,277.896015 Z" id="Rectangle" fill="#818181" opacity="0.687726449"></path>
            <path d="M185.870432,49.7018426 C186.441918,48.7619409 187.794555,48 188.902967,48 L193.520969,48 C194.624306,48 195.068217,48.7805474 194.553489,49.7526184 C194.553489,49.7526184 183.131827,67.821199 195.518738,85.0561859 C207.905648,102.291173 196.483987,120.199689 196.483987,120.199689 C195.950895,121.159575 194.62938,121.937717 193.520969,121.937717 L188.902967,121.937717 C187.79963,121.937717 187.387111,121.185917 187.939964,120.235874 C187.939964,120.235874 199.558734,103.880046 186.905198,84.9688585 C174.251662,66.0576707 185.870432,49.7018426 185.870432,49.7018426 Z" id="Rectangle-7" fill="#A9A9A9" opacity="0.181555707"></path>
            <path d="M226.365917,16.6884505 C226.948925,15.755945 228.318014,15 229.424298,15 L237.884001,15 C238.990089,15 239.43269,15.7750363 238.901843,16.7445838 C238.901843,16.7445838 221.960861,43.684525 239.886752,68.626377 C257.812642,93.568229 240.87166,120.270098 240.87166,120.270098 C240.32771,121.225496 238.990285,122 237.884001,122 L229.424298,122 C228.318209,122 227.912322,121.246747 228.477177,120.31155 C228.477177,120.31155 245.733288,95.8675897 227.421547,68.5 C209.109806,41.1324103 226.365917,16.6884505 226.365917,16.6884505 Z" id="Rectangle-7" fill="#A9A9A9" opacity="0.181555707" transform="translate(233.558715, 68.500000) rotate(-180.000000) translate(-233.558715, -68.500000) "></path>
            <path d="M312.870432,69.7018426 C313.441918,68.7619409 314.794555,68 315.902967,68 L320.520969,68 C321.624306,68 322.068217,68.7805474 321.553489,69.7526184 C321.553489,69.7526184 310.131827,87.821199 322.518738,105.056186 C334.905648,122.291173 323.483987,140.199689 323.483987,140.199689 C322.950895,141.159575 321.62938,141.937717 320.520969,141.937717 L315.902967,141.937717 C314.79963,141.937717 314.387111,141.185917 314.939964,140.235874 C314.939964,140.235874 326.558734,123.880046 313.905198,104.968859 C301.251662,86.0576707 312.870432,69.7018426 312.870432,69.7018426 Z" id="Rectangle-7" fill="#A9A9A9" opacity="0.181555707" transform="translate(318.142964, 104.968859) rotate(-180.000000) translate(-318.142964, -104.968859) "></path>
        </g>
    </g>
</svg>